<svg id="Layer_1" data-name="Layer 1" xmlns="http://www.w3.org/2000/svg" xmlns:xlink="http://www.w3.org/1999/xlink" width="111.6mm" height="49.93mm" viewBox="0 0 316.34 141.53"><defs><style>.cls-1,.cls-2{fill:#fff;}.cls-1,.cls-4{stroke:#0a8040;stroke-miterlimit:10;stroke-width:3px;}.cls-3{clip-path:url(#clip-path);}.cls-4{fill:none;}.cls-5{clip-path:url(#clip-path-2);}.cls-6{fill:#5d5e5e;}</style><clipPath id="clip-path" transform="translate(-12.98 19.77)"><polygon class="cls-1" points="66.95 13.63 97.64 85.91 141.59 60.05 66.95 13.63"/></clipPath><clipPath id="clip-path-2" transform="translate(-12.98 19.77)"><polygon class="cls-1" points="38.99 59.59 110.52 99.67 110.52 99.67 66.16 13 38.99 59.59"/></clipPath></defs><title>cood-k_logo-v2</title><polygon class="cls-2" points="53.97 33.39 84.66 105.67 128.61 79.82 53.97 33.39"/><g class="cls-3"><rect class="cls-1" x="54.09" y="0.27" width="98.71" height="101.45" transform="matrix(0.53, -0.85, 0.85, 0.53, -7.48, 131.66)"/></g><polygon class="cls-4" points="53.97 33.39 84.66 105.67 128.61 79.82 53.97 33.39"/><polygon class="cls-2" points="26.02 79.36 97.55 119.44 97.55 119.44 53.19 32.77 26.02 79.36"/><g class="cls-5"><rect class="cls-1" x="35.22" y="9.94" width="79.08" height="92.79" transform="translate(-17.77 26.76) rotate(-5.19)"/></g><polygon class="cls-4" points="26.02 79.36 97.55 119.44 97.55 119.44 53.19 32.77 26.02 79.36"/><polygon class="cls-1" points="2.25 93.65 45.03 121.4 53.19 33.88 2.25 93.65"/><path class="cls-6" d="M161.77,24.9v-.52c0-6.1,2.31-8.93,5-8.93a3.76,3.76,0,0,1,1.86.41v1.79a3.31,3.31,0,0,0-1.76-.57c-1.87,0-3.38,2.31-3.38,7.3v.52c0,5.06,1.51,7.3,3.38,7.3a3.41,3.41,0,0,0,1.82-.58v1.69a3.74,3.74,0,0,1-2,.52C163.92,33.83,161.77,31,161.77,24.9Z" transform="translate(-12.98 19.77)"/><path class="cls-6" d="M170,27.08v-.39c0-4.34,1.81-6.88,4-6.88s4,2.54,4,6.88v.39c0,4.34-1.82,6.88-4,6.88S170,31.42,170,27.08Zm6.33,0v-.42c0-3.35-1-5.37-2.36-5.37s-2.36,2-2.36,5.37v.42c0,3.35,1,5.4,2.36,5.4S176.36,30.43,176.36,27.08Z" transform="translate(-12.98 19.77)"/><path class="cls-6" d="M180.1,15.39h1.64V33.73H180.1Z" transform="translate(-12.98 19.77)"/><path class="cls-6" d="M184.44,15.39h1.63V33.73h-1.63Z" transform="translate(-12.98 19.77)"/><path class="cls-6" d="M188.17,27.16v-.37c0-4.64,1.8-7,3.87-7s3.67,2.41,3.67,6.75v1h-5.93c.11,3.27,1.43,4.8,3.07,4.8a4.06,4.06,0,0,0,2.39-.85l.15,1.55a4.72,4.72,0,0,1-2.77.84C190.25,33.94,188.17,31.65,188.17,27.16Zm6-.91c0-2.94-.86-5-2.11-5s-2.18,1.64-2.26,5Z" transform="translate(-12.98 19.77)"/><path class="cls-6" d="M197.26,27.11v-.42c0-4.65,2-6.86,4.21-6.86a3,3,0,0,1,1.71.45V22a2.7,2.7,0,0,0-1.63-.6c-1.28,0-2.65,1.59-2.65,5.25v.52c0,3.74,1.32,5.22,2.75,5.22a2.57,2.57,0,0,0,1.53-.63v1.64a2.87,2.87,0,0,1-1.74.55C199.18,33.94,197.26,31.78,197.26,27.11Z" transform="translate(-12.98 19.77)"/><path class="cls-6" d="M205.31,31.42v-10h-1.17V20h1.17V16.25H207V20H209v1.4H207V31c0,1,.46,1.32,1.27,1.32a2.79,2.79,0,0,0,.8-.13v1.4a3.43,3.43,0,0,1-1.16.24C206.38,33.86,205.31,33.26,205.31,31.42Z" transform="translate(-12.98 19.77)"/><path class="cls-6" d="M211,15.39h1.69v2.13H211ZM211,20h1.63V33.73H211Z" transform="translate(-12.98 19.77)"/><path class="cls-6" d="M214.55,20h1.64l2.36,11,2.39-11h1.59l-3.22,13.79H217.8Z" transform="translate(-12.98 19.77)"/><path class="cls-6" d="M223.36,27.16v-.37c0-4.64,1.79-7,3.87-7s3.66,2.41,3.66,6.75v1H225c.1,3.27,1.42,4.8,3.06,4.8a4.06,4.06,0,0,0,2.39-.85l.16,1.55a4.77,4.77,0,0,1-2.78.84C225.43,33.94,223.36,31.65,223.36,27.16Zm6-.91c0-2.94-.86-5-2.1-5s-2.19,1.64-2.26,5Z" transform="translate(-12.98 19.77)"/><path class="cls-6" d="M237.61,21.42h-1.25V20h1.25V18.59c0-2.16,1-3.25,2.88-3.25a3.11,3.11,0,0,1,.91.11V16.9a3.3,3.3,0,0,0-.67-.08c-1,0-1.48.6-1.48,1.92V20h2.05v1.4h-2.05V33.73h-1.64Z" transform="translate(-12.98 19.77)"/><path class="cls-6" d="M242.08,27.08v-.39c0-4.34,1.81-6.88,4-6.88s4,2.54,4,6.88v.39c0,4.34-1.82,6.88-4,6.88S242.08,31.42,242.08,27.08Zm6.33,0v-.42c0-3.35-1-5.37-2.36-5.37s-2.36,2-2.36,5.37v.42c0,3.35,1,5.4,2.36,5.4S248.41,30.43,248.41,27.08Z" transform="translate(-12.98 19.77)"/><path class="cls-6" d="M252.05,20h1.61v1.92a2.92,2.92,0,0,1,2.93-2.08V21.7h0c-1.64,0-2.88,1.07-2.88,3.35v8.68h-1.61Z" transform="translate(-12.98 19.77)"/><path class="cls-6" d="M161.77,56.08v-.57c0-6,1.89-9,4.47-9s4.44,3,4.44,9v.57c0,6-1.87,9-4.44,9S161.77,62.08,161.77,56.08Zm7.22,0v-.57c0-5.11-1.2-7.48-2.75-7.48s-2.76,2.37-2.76,7.48v.57c0,5.12,1.2,7.48,2.76,7.48S169,61.2,169,56.08Z" transform="translate(-12.98 19.77)"/><path class="cls-6" d="M172.8,51.17h1.61v2.39c.52-1.37,1.38-2.62,2.76-2.62,1.81,0,3.4,2.18,3.4,6.75v.68c0,4.52-1.59,6.75-3.4,6.75-1.38,0-2.24-1.25-2.76-2.6v5.74H172.8Zm6.13,7.15v-.58c0-3.4-1-5.29-2.2-5.29s-2.37,1.87-2.37,5.22v.72c0,3.35,1.14,5.22,2.37,5.22S178.93,61.72,178.93,58.32Z" transform="translate(-12.98 19.77)"/><path class="cls-6" d="M182.12,58.32V58c0-4.65,1.8-7,3.87-7s3.67,2.41,3.67,6.75v1h-5.93c.11,3.27,1.43,4.8,3.07,4.8a4,4,0,0,0,2.39-.86l.15,1.56a4.71,4.71,0,0,1-2.77.83C184.2,65.09,182.12,62.81,182.12,58.32Zm6-.91c0-2.94-.86-5-2.11-5s-2.18,1.63-2.26,5Z" transform="translate(-12.98 19.77)"/><path class="cls-6" d="M191.68,51.17h1.61V53.1A3,3,0,0,1,196,50.94c1.81,0,3,1.53,3,4.13v9.82h-1.61V55.35c0-1.92-.7-3-1.92-3s-2.18,1.25-2.18,3.14v9.38h-1.61Z" transform="translate(-12.98 19.77)"/><path class="cls-6" d="M205.7,46.71h2.36c3.56,0,6,3,6,8.83v.52c0,5.81-2.42,8.83-6,8.83H205.7Zm2.47,16.64c2.41,0,4.15-2.31,4.15-7.29v-.52c0-5-1.82-7.3-4.18-7.3h-.75V63.35Z" transform="translate(-12.98 19.77)"/><path class="cls-6" d="M215.51,60.94v-.26c0-2.7,1.3-4.39,3.46-4.39a5,5,0,0,1,2.18.52V55.33c0-1.77-.83-2.78-2.44-2.78a5.2,5.2,0,0,0-2.47.62V51.62a5.91,5.91,0,0,1,2.68-.6c2.39,0,3.84,1.45,3.84,4.15v9.72h-1.64V63a2.82,2.82,0,0,1-2.62,2.08C216.76,65.12,215.51,63.38,215.51,60.94Zm5.64-.16V58.16a4.43,4.43,0,0,0-1.9-.49c-1.4,0-2.15,1.16-2.15,2.9v.26c0,1.72.67,2.89,1.87,2.89S221.15,62.34,221.15,60.78Z" transform="translate(-12.98 19.77)"/><path class="cls-6" d="M225.38,62.57v-10h-1.17V51.17h1.17V47.41H227v3.76h2v1.41h-2v9.6c0,1,.47,1.33,1.27,1.33a2.91,2.91,0,0,0,.81-.13v1.4a3.54,3.54,0,0,1-1.17.24C226.45,65,225.38,64.42,225.38,62.57Z" transform="translate(-12.98 19.77)"/><path class="cls-6" d="M230.34,60.94v-.26c0-2.7,1.3-4.39,3.45-4.39a5.09,5.09,0,0,1,2.19.52V55.33c0-1.77-.84-2.78-2.45-2.78a5.16,5.16,0,0,0-2.46.62V51.62a5.84,5.84,0,0,1,2.67-.6c2.39,0,3.85,1.45,3.85,4.15v9.72H236V63a2.84,2.84,0,0,1-2.62,2.08C231.59,65.12,230.34,63.38,230.34,60.94Zm5.64-.16V58.16a4.43,4.43,0,0,0-1.9-.49c-1.4,0-2.16,1.16-2.16,2.9v.26c0,1.72.68,2.89,1.87,2.89S236,62.34,236,60.78Z" transform="translate(-12.98 19.77)"/><path class="cls-6" d="M244.26,46.71h2.36c3.56,0,6,3,6,8.83v.52c0,5.81-2.41,8.83-6,8.83h-2.36Zm2.46,16.64c2.42,0,4.16-2.31,4.16-7.29v-.52c0-5-1.82-7.3-4.18-7.3H246V63.35Z" transform="translate(-12.98 19.77)"/><path class="cls-6" d="M254.77,46.55h1.69v2.13h-1.69Zm0,4.62h1.64V64.89H254.8Z" transform="translate(-12.98 19.77)"/><path class="cls-6" d="M258.38,64.42V62.78a6.16,6.16,0,0,0,2.73.81,1.72,1.72,0,0,0,1.82-1.77v0c0-.86-.47-1.69-2-3.14-1.85-1.77-2.57-2.89-2.57-4.37v0A3.13,3.13,0,0,1,261.68,51a5.37,5.37,0,0,1,2.26.44v1.64a4.77,4.77,0,0,0-2.26-.57A1.58,1.58,0,0,0,260,54.13v.06c0,.85.44,1.5,2,3.06,1.85,1.84,2.55,3,2.55,4.44v.05a3.28,3.28,0,0,1-3.41,3.33A6.29,6.29,0,0,1,258.38,64.42Z" transform="translate(-12.98 19.77)"/><path class="cls-6" d="M266.56,62.57v-10h-1.17V51.17h1.17V47.41h1.64v3.76h2.05v1.41H268.2v9.6c0,1,.46,1.33,1.27,1.33a2.79,2.79,0,0,0,.8-.13v1.4a3.43,3.43,0,0,1-1.16.24C267.63,65,266.56,64.42,266.56,62.57Z" transform="translate(-12.98 19.77)"/><path class="cls-6" d="M272.14,51.17h1.61V53.1A2.93,2.93,0,0,1,276.69,51v1.84h-.05c-1.64,0-2.89,1.07-2.89,3.35v8.68h-1.61Z" transform="translate(-12.98 19.77)"/><path class="cls-6" d="M278.4,46.55h1.69v2.13H278.4Zm0,4.62h1.63V64.89h-1.63Z" transform="translate(-12.98 19.77)"/><path class="cls-6" d="M284.27,62.52v2.37h-1.61V46.55h1.61v7c.52-1.37,1.37-2.62,2.75-2.62,1.82,0,3.4,2.18,3.4,6.75v.68c0,4.52-1.58,6.75-3.4,6.75C285.64,65.12,284.79,63.87,284.27,62.52Zm4.52-4.2v-.58c0-3.4-1-5.29-2.21-5.29s-2.36,1.87-2.36,5.22v.72c0,3.35,1.14,5.22,2.36,5.22S288.79,61.72,288.79,58.32Z" transform="translate(-12.98 19.77)"/><path class="cls-6" d="M292.37,61V51.17H294V60.7c0,1.93.7,3,1.92,3s2.18-1.25,2.18-3.12v-9.4h1.61V64.89h-1.61V63a3,3,0,0,1-2.72,2.13C293.54,65.12,292.37,63.59,292.37,61Z" transform="translate(-12.98 19.77)"/><path class="cls-6" d="M302.57,62.57v-10H301.4V51.17h1.17V47.41h1.64v3.76h2.05v1.41h-2.05v9.6c0,1,.47,1.33,1.27,1.33a2.91,2.91,0,0,0,.81-.13v1.4a3.54,3.54,0,0,1-1.17.24C303.64,65,302.57,64.42,302.57,62.57Z" transform="translate(-12.98 19.77)"/><path class="cls-6" d="M308.23,46.55h1.69v2.13h-1.69Zm0,4.62h1.63V64.89h-1.63Z" transform="translate(-12.98 19.77)"/><path class="cls-6" d="M312,58.24v-.39c0-4.34,1.82-6.88,4-6.88s4,2.54,4,6.88v.39c0,4.33-1.82,6.88-4,6.88S312,62.57,312,58.24Zm6.34,0v-.42c0-3.35-1-5.37-2.36-5.37s-2.37,2-2.37,5.37v.42c0,3.35,1,5.4,2.37,5.4S318.36,61.59,318.36,58.24Z" transform="translate(-12.98 19.77)"/><path class="cls-6" d="M322,51.17h1.61V53.1a3,3,0,0,1,2.73-2.16c1.82,0,3,1.53,3,4.13v9.82h-1.61V55.35c0-1.92-.7-3-1.92-3s-2.19,1.25-2.19,3.14v9.38H322Z" transform="translate(-12.98 19.77)"/><path class="cls-6" d="M162.24,77.86h1.68v9.59l4.37-9.59h1.92l-3.9,8.08L170.6,96h-1.87l-3.53-8.23-1.28,2.7V96h-1.68Z" transform="translate(-12.98 19.77)"/><path class="cls-6" d="M171.12,89.47v-.36c0-4.65,1.79-7,3.87-7s3.66,2.42,3.66,6.76v1h-5.92c.1,3.28,1.42,4.81,3.06,4.81a4,4,0,0,0,2.39-.86l.16,1.56a4.76,4.76,0,0,1-2.78.83C173.19,96.25,171.12,94,171.12,89.47Zm6-.91c0-2.93-.86-5-2.1-5s-2.19,1.64-2.26,5Z" transform="translate(-12.98 19.77)"/><path class="cls-6" d="M180.67,82.33h1.61v1.92a2.91,2.91,0,0,1,2.94-2.07V84h-.06c-1.63,0-2.88,1.06-2.88,3.35V96h-1.61Z" transform="translate(-12.98 19.77)"/><path class="cls-6" d="M185.79,92.1v-.26c0-2.71,1.29-4.39,3.45-4.39a5,5,0,0,1,2.18.52V86.49c0-1.77-.83-2.78-2.44-2.78a5.2,5.2,0,0,0-2.47.62V82.77a5.91,5.91,0,0,1,2.68-.59c2.39,0,3.84,1.45,3.84,4.15V96H191.4V94.2a2.84,2.84,0,0,1-2.63,2.08C187,96.28,185.79,94.54,185.79,92.1Zm5.63-.16V89.32a4.44,4.44,0,0,0-1.89-.5c-1.41,0-2.16,1.17-2.16,2.91V92c0,1.72.68,2.88,1.87,2.88S191.42,93.5,191.42,91.94Z" transform="translate(-12.98 19.77)"/><path class="cls-6" d="M195.5,77.71h1.63V96H195.5Z" transform="translate(-12.98 19.77)"/><path class="cls-6" d="M199.11,92.1v-.26c0-2.71,1.29-4.39,3.45-4.39a5,5,0,0,1,2.18.52V86.49c0-1.77-.83-2.78-2.44-2.78a5.2,5.2,0,0,0-2.47.62V82.77a5.91,5.91,0,0,1,2.68-.59c2.39,0,3.84,1.45,3.84,4.15V96h-1.64V94.2a2.82,2.82,0,0,1-2.62,2.08C200.35,96.28,199.11,94.54,199.11,92.1Zm5.63-.16V89.32a4.44,4.44,0,0,0-1.9-.5c-1.4,0-2.15,1.17-2.15,2.91V92c0,1.72.67,2.88,1.87,2.88S204.74,93.5,204.74,91.94Z" transform="translate(-12.98 19.77)"/><path class="cls-6" d="M208.71,82.33h1.61v1.9A3,3,0,0,1,213,82.1a2.77,2.77,0,0,1,2.6,2.13,3.24,3.24,0,0,1,2.88-2.13c1.74,0,3,1.43,3,4.13V96h-1.61V86.46c0-1.92-.7-2.93-1.85-2.93s-2.12,1.22-2.12,3.09V96H214.3V86.46c0-1.92-.71-2.93-1.85-2.93s-2.13,1.22-2.13,3.09V96h-1.61Z" transform="translate(-12.98 19.77)"/></svg>